#!OML:ASF F:\VICON\USERDATA\INSTALL\rory3\rory3.ASF
:FULLY-SPECIFIED
:DEGREES
58
root 0.67554294144527 17.84901833670864 31.364059966297233 -3.148809597104096 -2.7333074877008947 0.12978583156404744
lfemur 7.12043851378465 -3.560838812987683 -23.95661096499396
ltibia 17.35106413516275
lfoot -2.26008193411738 -4.222915791854174
ltoes -6.1406903780970605
rfemur -25.644172932395612 3.0109648509015177 21.28627056495724
rtibia 58.75850570359211
rfoot -4.9596129731243845 -0.13263431770996892
rtoes 5.243854970481657
lowerback 1.0 -0.2745515306684506 -1.2938736845391166
upperback 0.4839645093672692 -0.619800729552908 1.2164580497983029
thorax -4.878946528857025 -0.2315630260812055 2.4070981413141146
lowerneck -17.18173633540197 -2.753002227971232 -1.6465587337095178
upperneck 21.446315176541486 -3.5510457818717343 1.0540285258962925
head 9.673564189675647 -1.7258033425507957 0.2643195679473116
lclavicle -1.0661917395113022e-15 -4.0123345138369648e-16
lhumerus -25.70292444099626 -3.515912591256166 83.03367413831697
lradius 29.16924472778875
lwrist 4.409130159786981
lhand -26.802813740774425 23.807853918778857
lfingers nan
lthumb -0.1412897770960203 54.00435582173507
rclavicle -1.1408425406744701e-15 -4.631948724817881e-16
rhumerus -29.525238077852617 -18.704199019627477 -81.48605169796126
rradius 26.517078770180092
rwrist 3.3314101229171067
rhand -17.48784858861358 1.0
rfingers nan
rthumb 8.702300435976946 -8.478882928898951
59
root 0.6964719036472431 17.839646366140663 32.225951855353124 -3.074018482673344 -3.0172996721243264 -0.13035388060242603
lfemur 8.722614114908978 -3.563733875455325 -23.585766506325495
ltibia 17.80815676361489
lfoot -1.6229127018493799 -4.645728749405388
ltoes -4.904529281395694
rfemur -26.468451489568245 3.313590164700754 21.643921312636806
rtibia 54.24661804063894
rfoot -5.213615835368222 -0.1409712867119275
rtoes 4.825184996332833
lowerback 1.0 -0.4324970731280343 -1.204864974440977
upperback 0.4432156488901633 -0.7730220373493366 1.5163315072520631
thorax -4.925566266797934 -0.3361922457561891 2.5719998327836726
lowerneck -17.149692044826384 -2.6715055150104448 -1.737767103715829
upperneck 21.627556445703192 -3.411190598433867 0.9537371873586818
head 9.747007593043609 -1.6674215230280527 0.27161584337394484
lclavicle -1.067917051618904e-15 -4.0172843006362963e-16
lhumerus -25.071081212933045 -3.8744660628668983 82.88514056382681
lradius 29.21849319919133
lwrist 4.673266810421968
lhand -26.86284204885589 23.817972172301335
lfingers nan
lthumb -0.12597100130001693 54.140011910703166
rclavicle -1.1423578162201362e-15 -4.637480498082976e-16
rhumerus -30.066606387902922 -19.074669596853266 -81.2667160564493
rradius 26.81460819968566
rwrist 2.922168729101042
rhand -17.543007720769808 1.0
rfingers nan
rthumb 8.709724016469483 -8.488535277103376
60
root 0.7226562962237928 17.828764116375037 33.33392495480788 -3.174836076935665 -3.267927546659295 0.5662965541114766
lfemur 9.79251433822673 -3.6084004294353322 -24.048027808185203
ltibia 19.26530508426223
lfoot -1.2913637647340463 -4.4539644734573125
ltoes -4.337250732866716
rfemur -26.578804834361087 3.354199561687798 21.170527933680813
rtibia 49.01740493913124
rfoot -5.7735903717014505 -0.031414277415010794
rtoes 4.534621095854099
lowerback 1.0 -0.5165325661347929 -1.7431940788160452
upperback 0.45262530053896677 -0.9388764863202279 1.5499903385016018
thorax -4.906705590340485 -0.44160799797863204 2.7260864036369603
lowerneck -17.105369922009746 -2.6113812464091657 -1.8275755596421563
upperneck 21.814451655818058 -3.299839742865287 0.848908631939647
head 9.81721168404636 -1.6222851021993812 0.2697525623739915
lclavicle -1.069190332684187e-15 -4.0206253870912863e-16
lhumerus -24.710621586232733 -4.066168429576667 82.8044276966775
lradius 29.131472046872997
lwrist 4.900851714237007
lhand -26.853181729748634 23.787015137234203
lfingers nan
lthumb -0.08133269353049472 54.139573697199765
rclavicle -1.1442508385853127e-15 -4.647559439583402e-16
rhumerus -30.556238546090263 -19.47198828664841 -80.89905235846699
rradius 27.17116105008118
rwrist 2.7742951940585208
rhand -17.57187852230992 1.0
rfingers nan
rthumb 8.692671934170685 -8.54980843015641
61
root 0.7621134151623316 17.82409807961999 34.68391776548547 -3.175697268294752 -3.1903110220176067 1.2043234253390676
lfemur 10.035769189773681 -3.746247231553123 -24.37491710744288
ltibia 22.016436783323186
lfoot -2.120857219309666 -4.427835421928963
ltoes -3.4234815133513115
rfemur -26.276511537095157 3.156522469728282 20.74080826896075
rtibia 43.51999234735563
rfoot -6.6696840290682236 0.14442455312902513
rtoes 4.285215848566054
lowerback 1.0 -0.7058373267844112 -2.1952535437550265
upperback 0.48002842411656677 -1.261742565002182 1.5347735551344124
thorax -4.823044770032313 -0.6102132645625528 2.9295802337320294
lowerneck -17.051888732284578 -2.5749125574337994 -1.945964925398117
upperneck 21.98927199489297 -3.223740622265996 0.7579394438780983
head 9.88097610152163 -1.593147421378848 0.2619837949470616
lclavicle -1.069679484928667e-15 -4.0183373960690403e-16
lhumerus -24.599579321140705 -4.12986527727067 82.79019218755552
lradius 28.84247376798021
lwrist 5.064849422908551
lhand -26.859597310230033 23.659489506750123
lfingers nan
lthumb -0.025567205173316676 54.11908962977733
rclavicle -1.1465560363958116e-15 -4.661528225522376e-16
rhumerus -30.93320007477211 -19.939910311041135 -80.39468757309304
rradius 27.5452485043377
rwrist 2.987656833148235
rhand -17.582851279510574 1.0
rfingers nan
rthumb 8.742671221525796 -8.450011435331913
